<mxfile host="app.diagrams.net" agent="Mozilla/5.0 (Macintosh; Intel Mac OS X 10_15_7) AppleWebKit/537.36 (KHTML, like Gecko) Chrome/136.0.0.0 Safari/537.36" version="27.1.3" pages="5">
  <diagram name="Page-1" id="xHCG6ZKqmYHIGINIzUaK">
    <mxGraphModel dx="833" dy="489" grid="1" gridSize="10" guides="1" tooltips="1" connect="1" arrows="1" fold="1" page="1" pageScale="1" pageWidth="827" pageHeight="1169" math="0" shadow="0">
      <root>
        <mxCell id="0" />
        <mxCell id="1" parent="0" />
        <mxCell id="jbjd7WG7JukR3YZbr3oE-1" value="" style="rounded=0;whiteSpace=wrap;html=1;" vertex="1" parent="1">
          <mxGeometry x="240" y="90" width="280" height="300" as="geometry" />
        </mxCell>
        <mxCell id="jbjd7WG7JukR3YZbr3oE-2" value="Angular" style="rounded=0;whiteSpace=wrap;html=1;" vertex="1" parent="1">
          <mxGeometry x="250" y="110" width="260" height="70" as="geometry" />
        </mxCell>
        <mxCell id="jbjd7WG7JukR3YZbr3oE-3" value="React" style="rounded=0;whiteSpace=wrap;html=1;" vertex="1" parent="1">
          <mxGeometry x="250" y="205" width="260" height="70" as="geometry" />
        </mxCell>
        <mxCell id="jbjd7WG7JukR3YZbr3oE-4" value="Vue" style="rounded=0;whiteSpace=wrap;html=1;" vertex="1" parent="1">
          <mxGeometry x="250" y="300" width="260" height="70" as="geometry" />
        </mxCell>
        <mxCell id="jbjd7WG7JukR3YZbr3oE-5" value="index.html" style="text;html=1;align=center;verticalAlign=middle;resizable=0;points=[];autosize=1;strokeColor=none;fillColor=none;" vertex="1" parent="1">
          <mxGeometry x="320" y="48" width="80" height="30" as="geometry" />
        </mxCell>
      </root>
    </mxGraphModel>
  </diagram>
  <diagram id="msrYXLUXiTKrT4-sTs4U" name="Page-2">
    <mxGraphModel dx="694" dy="408" grid="1" gridSize="10" guides="1" tooltips="1" connect="1" arrows="1" fold="1" page="1" pageScale="1" pageWidth="827" pageHeight="1169" math="0" shadow="0">
      <root>
        <mxCell id="0" />
        <mxCell id="1" parent="0" />
        <mxCell id="gnhaA4r1T7iJTCCgqoIU-10" style="edgeStyle=orthogonalEdgeStyle;rounded=0;orthogonalLoop=1;jettySize=auto;html=1;exitX=0;exitY=0;exitDx=0;exitDy=52.5;exitPerimeter=0;" edge="1" parent="1" source="gnhaA4r1T7iJTCCgqoIU-1">
          <mxGeometry relative="1" as="geometry">
            <mxPoint x="520" y="202.83333333333337" as="targetPoint" />
          </mxGeometry>
        </mxCell>
        <mxCell id="gnhaA4r1T7iJTCCgqoIU-1" value="" style="shape=cylinder3;whiteSpace=wrap;html=1;boundedLbl=1;backgroundOutline=1;size=15;" vertex="1" parent="1">
          <mxGeometry x="670" y="150" width="60" height="80" as="geometry" />
        </mxCell>
        <mxCell id="gnhaA4r1T7iJTCCgqoIU-2" value="Mongo DB" style="text;html=1;align=center;verticalAlign=middle;resizable=0;points=[];autosize=1;strokeColor=none;fillColor=none;" vertex="1" parent="1">
          <mxGeometry x="660" y="238" width="80" height="30" as="geometry" />
        </mxCell>
        <mxCell id="gnhaA4r1T7iJTCCgqoIU-7" style="edgeStyle=orthogonalEdgeStyle;rounded=0;orthogonalLoop=1;jettySize=auto;html=1;exitX=1;exitY=0.25;exitDx=0;exitDy=0;entryX=0;entryY=0.25;entryDx=0;entryDy=0;" edge="1" parent="1" source="gnhaA4r1T7iJTCCgqoIU-3" target="gnhaA4r1T7iJTCCgqoIU-5">
          <mxGeometry relative="1" as="geometry" />
        </mxCell>
        <mxCell id="gnhaA4r1T7iJTCCgqoIU-3" value="Angular Apps" style="rounded=0;whiteSpace=wrap;html=1;" vertex="1" parent="1">
          <mxGeometry x="110" y="160" width="120" height="60" as="geometry" />
        </mxCell>
        <mxCell id="gnhaA4r1T7iJTCCgqoIU-4" value="Client side / Browser" style="text;html=1;align=center;verticalAlign=middle;resizable=0;points=[];autosize=1;strokeColor=none;fillColor=none;" vertex="1" parent="1">
          <mxGeometry x="100" y="250" width="130" height="30" as="geometry" />
        </mxCell>
        <mxCell id="gnhaA4r1T7iJTCCgqoIU-9" style="edgeStyle=orthogonalEdgeStyle;rounded=0;orthogonalLoop=1;jettySize=auto;html=1;exitX=1;exitY=0.25;exitDx=0;exitDy=0;" edge="1" parent="1" source="gnhaA4r1T7iJTCCgqoIU-5">
          <mxGeometry relative="1" as="geometry">
            <mxPoint x="650" y="175.33333333333337" as="targetPoint" />
          </mxGeometry>
        </mxCell>
        <mxCell id="gnhaA4r1T7iJTCCgqoIU-11" style="edgeStyle=orthogonalEdgeStyle;rounded=0;orthogonalLoop=1;jettySize=auto;html=1;exitX=0;exitY=0.75;exitDx=0;exitDy=0;entryX=1;entryY=0.75;entryDx=0;entryDy=0;" edge="1" parent="1" source="gnhaA4r1T7iJTCCgqoIU-5" target="gnhaA4r1T7iJTCCgqoIU-3">
          <mxGeometry relative="1" as="geometry" />
        </mxCell>
        <mxCell id="gnhaA4r1T7iJTCCgqoIU-5" value="Business Layer&lt;div&gt;Python, NodeJS, Java, DotNet&lt;/div&gt;" style="rounded=0;whiteSpace=wrap;html=1;" vertex="1" parent="1">
          <mxGeometry x="390" y="160" width="120" height="60" as="geometry" />
        </mxCell>
        <mxCell id="gnhaA4r1T7iJTCCgqoIU-6" value="Server-side" style="text;html=1;align=center;verticalAlign=middle;resizable=0;points=[];autosize=1;strokeColor=none;fillColor=none;" vertex="1" parent="1">
          <mxGeometry x="400" y="258" width="80" height="30" as="geometry" />
        </mxCell>
        <mxCell id="gnhaA4r1T7iJTCCgqoIU-12" value="" style="shape=cylinder3;whiteSpace=wrap;html=1;boundedLbl=1;backgroundOutline=1;size=15;" vertex="1" parent="1">
          <mxGeometry x="490" y="350" width="60" height="80" as="geometry" />
        </mxCell>
        <mxCell id="gnhaA4r1T7iJTCCgqoIU-13" value="Angular Apps" style="rounded=0;whiteSpace=wrap;html=1;" vertex="1" parent="1">
          <mxGeometry x="110" y="360" width="120" height="60" as="geometry" />
        </mxCell>
        <mxCell id="gnhaA4r1T7iJTCCgqoIU-14" value="Serverless (Cloud)" style="text;html=1;align=center;verticalAlign=middle;resizable=0;points=[];autosize=1;strokeColor=none;fillColor=none;" vertex="1" parent="1">
          <mxGeometry x="460" y="428" width="120" height="30" as="geometry" />
        </mxCell>
      </root>
    </mxGraphModel>
  </diagram>
  <diagram id="meJ6_5HiJ64cH3cG6W3h" name="Page-3">
    <mxGraphModel dx="694" dy="408" grid="1" gridSize="10" guides="1" tooltips="1" connect="1" arrows="1" fold="1" page="1" pageScale="1" pageWidth="827" pageHeight="1169" math="0" shadow="0">
      <root>
        <mxCell id="0" />
        <mxCell id="1" parent="0" />
        <mxCell id="iOODoI-3o-cY-_SvXfL1-3" value="" style="edgeStyle=orthogonalEdgeStyle;rounded=0;orthogonalLoop=1;jettySize=auto;html=1;" edge="1" parent="1" source="iOODoI-3o-cY-_SvXfL1-1" target="iOODoI-3o-cY-_SvXfL1-2">
          <mxGeometry relative="1" as="geometry" />
        </mxCell>
        <mxCell id="iOODoI-3o-cY-_SvXfL1-1" value="npm start" style="text;html=1;align=center;verticalAlign=middle;resizable=0;points=[];autosize=1;strokeColor=none;fillColor=none;" vertex="1" parent="1">
          <mxGeometry x="135" y="145" width="70" height="30" as="geometry" />
        </mxCell>
        <mxCell id="iOODoI-3o-cY-_SvXfL1-5" value="" style="edgeStyle=orthogonalEdgeStyle;rounded=0;orthogonalLoop=1;jettySize=auto;html=1;" edge="1" parent="1" source="iOODoI-3o-cY-_SvXfL1-2" target="iOODoI-3o-cY-_SvXfL1-4">
          <mxGeometry relative="1" as="geometry" />
        </mxCell>
        <mxCell id="iOODoI-3o-cY-_SvXfL1-2" value="Development Server&lt;div&gt;localhost:4200&lt;/div&gt;" style="text;html=1;align=center;verticalAlign=middle;resizable=0;points=[];autosize=1;strokeColor=none;fillColor=none;" vertex="1" parent="1">
          <mxGeometry x="255" y="140" width="130" height="40" as="geometry" />
        </mxCell>
        <mxCell id="iOODoI-3o-cY-_SvXfL1-7" value="" style="edgeStyle=orthogonalEdgeStyle;rounded=0;orthogonalLoop=1;jettySize=auto;html=1;" edge="1" parent="1" source="iOODoI-3o-cY-_SvXfL1-4" target="iOODoI-3o-cY-_SvXfL1-6">
          <mxGeometry relative="1" as="geometry" />
        </mxCell>
        <mxCell id="iOODoI-3o-cY-_SvXfL1-4" value="index.html&lt;div&gt;&amp;lt;app-root&amp;gt;&lt;/div&gt;" style="text;html=1;align=center;verticalAlign=middle;resizable=0;points=[];autosize=1;strokeColor=none;fillColor=none;" vertex="1" parent="1">
          <mxGeometry x="490" y="140" width="80" height="40" as="geometry" />
        </mxCell>
        <mxCell id="iOODoI-3o-cY-_SvXfL1-9" value="" style="edgeStyle=orthogonalEdgeStyle;rounded=0;orthogonalLoop=1;jettySize=auto;html=1;" edge="1" parent="1" source="iOODoI-3o-cY-_SvXfL1-6" target="iOODoI-3o-cY-_SvXfL1-8">
          <mxGeometry relative="1" as="geometry" />
        </mxCell>
        <mxCell id="iOODoI-3o-cY-_SvXfL1-6" value="main.ts&lt;div&gt;(AppModule)&lt;/div&gt;" style="text;html=1;align=center;verticalAlign=middle;resizable=0;points=[];autosize=1;strokeColor=none;fillColor=none;" vertex="1" parent="1">
          <mxGeometry x="485" y="260" width="90" height="40" as="geometry" />
        </mxCell>
        <mxCell id="iOODoI-3o-cY-_SvXfL1-11" value="" style="edgeStyle=orthogonalEdgeStyle;rounded=0;orthogonalLoop=1;jettySize=auto;html=1;" edge="1" parent="1" source="iOODoI-3o-cY-_SvXfL1-8" target="iOODoI-3o-cY-_SvXfL1-10">
          <mxGeometry relative="1" as="geometry" />
        </mxCell>
        <mxCell id="iOODoI-3o-cY-_SvXfL1-8" value="AppModule bootstraps&amp;nbsp;&lt;div&gt;Root Component&lt;/div&gt;&lt;div&gt;(AppComponent)&lt;/div&gt;" style="text;html=1;align=center;verticalAlign=middle;resizable=0;points=[];autosize=1;strokeColor=none;fillColor=none;" vertex="1" parent="1">
          <mxGeometry x="285" y="250" width="150" height="60" as="geometry" />
        </mxCell>
        <mxCell id="iOODoI-3o-cY-_SvXfL1-10" value="AppComponent&lt;div&gt;TS / HTML / CSS / SPEC&amp;nbsp;&lt;/div&gt;" style="text;html=1;align=center;verticalAlign=middle;resizable=0;points=[];autosize=1;strokeColor=none;fillColor=none;" vertex="1" parent="1">
          <mxGeometry x="50" y="260" width="160" height="40" as="geometry" />
        </mxCell>
        <mxCell id="iOODoI-3o-cY-_SvXfL1-12" value="Angular Bootstrap Process" style="text;strokeColor=none;fillColor=none;html=1;fontSize=24;fontStyle=1;verticalAlign=middle;align=center;" vertex="1" parent="1">
          <mxGeometry x="340" y="60" width="100" height="40" as="geometry" />
        </mxCell>
      </root>
    </mxGraphModel>
  </diagram>
  <diagram id="T2R3cWcPToN73oV4dLKp" name="Page-4">
    <mxGraphModel dx="595" dy="349" grid="1" gridSize="10" guides="1" tooltips="1" connect="1" arrows="1" fold="1" page="1" pageScale="1" pageWidth="827" pageHeight="1169" math="0" shadow="0">
      <root>
        <mxCell id="0" />
        <mxCell id="1" parent="0" />
        <mxCell id="No9ivg-RlVNZmDH2ZosN-1" value="Component Class" style="rounded=0;whiteSpace=wrap;html=1;" vertex="1" parent="1">
          <mxGeometry x="145" y="220" width="120" height="60" as="geometry" />
        </mxCell>
        <mxCell id="No9ivg-RlVNZmDH2ZosN-7" style="edgeStyle=orthogonalEdgeStyle;rounded=0;orthogonalLoop=1;jettySize=auto;html=1;exitX=0.5;exitY=1;exitDx=0;exitDy=0;entryX=0.5;entryY=1;entryDx=0;entryDy=0;" edge="1" parent="1" source="No9ivg-RlVNZmDH2ZosN-2" target="No9ivg-RlVNZmDH2ZosN-1">
          <mxGeometry relative="1" as="geometry">
            <Array as="points">
              <mxPoint x="515" y="350" />
              <mxPoint x="205" y="350" />
            </Array>
          </mxGeometry>
        </mxCell>
        <mxCell id="No9ivg-RlVNZmDH2ZosN-2" value="Component&amp;nbsp;&lt;div&gt;Template&lt;/div&gt;" style="rounded=0;whiteSpace=wrap;html=1;" vertex="1" parent="1">
          <mxGeometry x="455" y="220" width="120" height="60" as="geometry" />
        </mxCell>
        <mxCell id="No9ivg-RlVNZmDH2ZosN-3" value="Data / Model" style="text;html=1;align=center;verticalAlign=middle;resizable=0;points=[];autosize=1;strokeColor=none;fillColor=none;" vertex="1" parent="1">
          <mxGeometry x="60" y="238" width="90" height="30" as="geometry" />
        </mxCell>
        <mxCell id="No9ivg-RlVNZmDH2ZosN-5" style="edgeStyle=orthogonalEdgeStyle;rounded=0;orthogonalLoop=1;jettySize=auto;html=1;exitX=0.5;exitY=0;exitDx=0;exitDy=0;entryX=0.542;entryY=-0.007;entryDx=0;entryDy=0;entryPerimeter=0;" edge="1" parent="1" source="No9ivg-RlVNZmDH2ZosN-1" target="No9ivg-RlVNZmDH2ZosN-2">
          <mxGeometry relative="1" as="geometry">
            <Array as="points">
              <mxPoint x="205" y="140" />
              <mxPoint x="520" y="140" />
            </Array>
          </mxGeometry>
        </mxCell>
        <mxCell id="No9ivg-RlVNZmDH2ZosN-6" value="[ Property Binding ]&amp;nbsp;" style="text;html=1;align=center;verticalAlign=middle;resizable=0;points=[];autosize=1;strokeColor=none;fillColor=none;" vertex="1" parent="1">
          <mxGeometry x="299" y="150" width="130" height="30" as="geometry" />
        </mxCell>
        <mxCell id="No9ivg-RlVNZmDH2ZosN-8" value="( Event Binding )&amp;nbsp;" style="text;html=1;align=center;verticalAlign=middle;resizable=0;points=[];autosize=1;strokeColor=none;fillColor=none;" vertex="1" parent="1">
          <mxGeometry x="304" y="308" width="120" height="30" as="geometry" />
        </mxCell>
        <mxCell id="No9ivg-RlVNZmDH2ZosN-9" value="Data Binding" style="text;strokeColor=none;fillColor=none;html=1;fontSize=24;fontStyle=1;verticalAlign=middle;align=center;" vertex="1" parent="1">
          <mxGeometry x="304" y="70" width="100" height="40" as="geometry" />
        </mxCell>
        <mxCell id="No9ivg-RlVNZmDH2ZosN-10" value="2 way data binding - Banana in the Box" style="text;html=1;align=center;verticalAlign=middle;resizable=0;points=[];autosize=1;strokeColor=none;fillColor=none;" vertex="1" parent="1">
          <mxGeometry x="215" y="378" width="230" height="30" as="geometry" />
        </mxCell>
        <mxCell id="No9ivg-RlVNZmDH2ZosN-11" value="[ PB ]&amp;nbsp; &amp;nbsp;+&amp;nbsp; &amp;nbsp;(. EB&amp;nbsp; )" style="text;html=1;align=center;verticalAlign=middle;resizable=0;points=[];autosize=1;strokeColor=none;fillColor=none;" vertex="1" parent="1">
          <mxGeometry x="260" y="400" width="120" height="30" as="geometry" />
        </mxCell>
        <mxCell id="No9ivg-RlVNZmDH2ZosN-12" value="[ ( ngModel ) ]" style="text;html=1;align=center;verticalAlign=middle;resizable=0;points=[];autosize=1;strokeColor=#82b366;fillColor=#d5e8d4;" vertex="1" parent="1">
          <mxGeometry x="270" y="438" width="100" height="30" as="geometry" />
        </mxCell>
      </root>
    </mxGraphModel>
  </diagram>
  <diagram id="YfjrEzLQt79x_k_3NdWQ" name="Page-5">
    <mxGraphModel dx="724" dy="425" grid="1" gridSize="10" guides="1" tooltips="1" connect="1" arrows="1" fold="1" page="1" pageScale="1" pageWidth="827" pageHeight="1169" math="0" shadow="0">
      <root>
        <mxCell id="0" />
        <mxCell id="1" parent="0" />
        <mxCell id="OPIFBlte9g5XKjhzY2nz-3" value="" style="edgeStyle=orthogonalEdgeStyle;rounded=0;orthogonalLoop=1;jettySize=auto;html=1;" edge="1" parent="1" source="OPIFBlte9g5XKjhzY2nz-1" target="OPIFBlte9g5XKjhzY2nz-2">
          <mxGeometry relative="1" as="geometry">
            <Array as="points">
              <mxPoint x="380" y="230" />
              <mxPoint x="380" y="230" />
            </Array>
          </mxGeometry>
        </mxCell>
        <mxCell id="OPIFBlte9g5XKjhzY2nz-1" value="Users&lt;div&gt;Component&lt;/div&gt;" style="rounded=0;whiteSpace=wrap;html=1;" vertex="1" parent="1">
          <mxGeometry x="350" y="90" width="120" height="60" as="geometry" />
        </mxCell>
        <mxCell id="OPIFBlte9g5XKjhzY2nz-9" style="edgeStyle=orthogonalEdgeStyle;rounded=0;orthogonalLoop=1;jettySize=auto;html=1;exitX=0.75;exitY=0;exitDx=0;exitDy=0;entryX=0.75;entryY=1;entryDx=0;entryDy=0;" edge="1" parent="1" source="OPIFBlte9g5XKjhzY2nz-2" target="OPIFBlte9g5XKjhzY2nz-1">
          <mxGeometry relative="1" as="geometry" />
        </mxCell>
        <mxCell id="OPIFBlte9g5XKjhzY2nz-2" value="UserImage&lt;div&gt;Component&lt;/div&gt;" style="rounded=0;whiteSpace=wrap;html=1;" vertex="1" parent="1">
          <mxGeometry x="350" y="310" width="120" height="60" as="geometry" />
        </mxCell>
        <mxCell id="OPIFBlte9g5XKjhzY2nz-6" value="users (model)" style="text;html=1;align=center;verticalAlign=middle;resizable=0;points=[];autosize=1;strokeColor=none;fillColor=none;" vertex="1" parent="1">
          <mxGeometry x="230" y="98" width="100" height="30" as="geometry" />
        </mxCell>
        <mxCell id="OPIFBlte9g5XKjhzY2nz-7" value="@Input()" style="text;html=1;align=center;verticalAlign=middle;resizable=0;points=[];autosize=1;strokeColor=none;fillColor=none;" vertex="1" parent="1">
          <mxGeometry x="250" y="325" width="70" height="30" as="geometry" />
        </mxCell>
        <mxCell id="OPIFBlte9g5XKjhzY2nz-8" value="[ Property Binding ]&amp;nbsp;" style="text;html=1;align=center;verticalAlign=middle;resizable=0;points=[];autosize=1;strokeColor=none;fillColor=none;" vertex="1" parent="1">
          <mxGeometry x="215" y="128" width="130" height="30" as="geometry" />
        </mxCell>
        <mxCell id="OPIFBlte9g5XKjhzY2nz-10" value="@Output() + EventEmitter" style="text;html=1;align=center;verticalAlign=middle;resizable=0;points=[];autosize=1;strokeColor=none;fillColor=none;" vertex="1" parent="1">
          <mxGeometry x="470" y="325" width="160" height="30" as="geometry" />
        </mxCell>
        <mxCell id="OPIFBlte9g5XKjhzY2nz-11" value="( Event Binding )" style="text;html=1;align=center;verticalAlign=middle;resizable=0;points=[];autosize=1;strokeColor=none;fillColor=none;" vertex="1" parent="1">
          <mxGeometry x="470" y="105" width="110" height="30" as="geometry" />
        </mxCell>
        <mxCell id="OPIFBlte9g5XKjhzY2nz-12" value="Nested Component Communication" style="text;strokeColor=none;fillColor=none;html=1;fontSize=24;fontStyle=1;verticalAlign=middle;align=center;" vertex="1" parent="1">
          <mxGeometry x="370" y="30" width="100" height="40" as="geometry" />
        </mxCell>
      </root>
    </mxGraphModel>
  </diagram>
</mxfile>
